# xmcd
#
# Track frame offsets:
#	150
#	19945
#	35199
#	51372
#	65204
#	90628
#	107791
#	128914
#	148364
#	159879
#	181155
#	195430
#	209653
#	222466
#	237094
#	258107
#	278683
#	297921
#	314624
#
# Disc length: 4443 seconds
#
# Revision: 0
# Processed by: cddbd v1.5.2PL0 Copyright (c) Steve Scherf et al.
# Submitted via: EasyCDDAExtractor 11.1.0.1
#
DISCID=2c115913
DTITLE=Emmylou Harris - Emmylou Harris - Cimarron and Quater moon in a ten cent 
DTITLE=town
DYEAR=1900
DGENRE=Country
TTITLE0=Rose of Cimmarron
TTITLE1=Spanish is loving tongue
TTITLE2=If I needed you
TTITLE3=Another lonesome morning
TTITLE4=The last cheater's waltz
TTITLE5=Born to run
TTITLE6=The price you pay
TTITLE7=Son of a rotten gambler
TTITLE8=Tennessee waltz
TTITLE9=Tennessee rose
TTITLE10=Easy from now on
TTITLE11=Two more bottles of wine
TTITLE12=To daddy
TTITLE13=My songbird
TTITLE14=Leaving Louisiana in the broad daylight
TTITLE15=Burn that candle
TTITLE16=Defying gravity
TTITLE17=Green rolling hills
TTITLE18=I ain't living long like this
EXTD=
EXTT0=
EXTT1=
EXTT2=
EXTT3=
EXTT4=
EXTT5=
EXTT6=
EXTT7=
EXTT8=
EXTT9=
EXTT10=
EXTT11=
EXTT12=
EXTT13=
EXTT14=
EXTT15=
EXTT16=
EXTT17=
EXTT18=
PLAYORDER=
